<svg width="24" height="24" viewBox="0 0 24 24" fill="none" xmlns="http://www.w3.org/2000/svg">
<path d="M8.43778 14.2972C8.82341 13.9887 9.38497 14.0489 9.69674 14.4303C9.69855 14.4324 9.70334 14.4379 9.71111 14.4464C9.72801 14.4649 9.7587 14.4972 9.80306 14.5387C9.89213 14.6222 10.0338 14.741 10.227 14.8618C10.61 15.1012 11.1969 15.35 12 15.35C12.8031 15.35 13.3901 15.1012 13.773 14.8618C13.9663 14.741 14.1079 14.6222 14.197 14.5387C14.2413 14.4972 14.272 14.4649 14.2889 14.4464L14.3008 14.4331L14.3033 14.4303C14.6151 14.0488 15.1766 13.9887 15.5622 14.2972C15.9504 14.6077 16.0133 15.1741 15.7028 15.5622L15 15C15.7028 15.5622 15.7028 15.5622 15.7028 15.5622L15.7017 15.5636L15.7004 15.5651L15.6977 15.5685L15.691 15.5767L15.6729 15.5983C15.6587 15.6149 15.6402 15.6361 15.6174 15.661C15.5718 15.7109 15.5087 15.7763 15.4281 15.8519C15.2671 16.0028 15.0338 16.1965 14.727 16.3882C14.11 16.7739 13.1969 17.15 12 17.15C10.8031 17.15 9.89006 16.7739 9.27301 16.3882C8.96627 16.1965 8.73289 16.0028 8.57196 15.8519C8.49132 15.7763 8.42825 15.7109 8.38266 15.661C8.35984 15.6361 8.34133 15.6149 8.32711 15.5983L8.30898 15.5767L8.30231 15.5685L8.29957 15.5651L8.29835 15.5636C8.29835 15.5636 8.29723 15.5622 9.00001 15L8.29723 15.5622C7.98672 15.1741 8.04965 14.6077 8.43778 14.2972Z" fill="#99A2AD"/>
<path d="M10.25 10.25C10.25 10.9404 9.69036 11.5 9 11.5C8.30964 11.5 7.75 10.9404 7.75 10.25C7.75 9.55964 8.30964 9 9 9C9.69036 9 10.25 9.55964 10.25 10.25Z" fill="#99A2AD"/>
<path d="M15 11.5C15.6904 11.5 16.25 10.9404 16.25 10.25C16.25 9.55964 15.6904 9 15 9C14.3096 9 13.75 9.55964 13.75 10.25C13.75 10.9404 14.3096 11.5 15 11.5Z" fill="#99A2AD"/>
<path fill-rule="evenodd" clip-rule="evenodd" d="M12 2.10001C6.53239 2.10001 2.10001 6.53239 2.10001 12C2.10001 17.4676 6.53239 21.9 12 21.9C17.4676 21.9 21.9 17.4676 21.9 12C21.9 6.53239 17.4676 2.10001 12 2.10001ZM3.90001 12C3.90001 7.5265 7.5265 3.90001 12 3.90001C16.4735 3.90001 20.1 7.5265 20.1 12C20.1 16.4735 16.4735 20.1 12 20.1C7.5265 20.1 3.90001 16.4735 3.90001 12Z" fill="#99A2AD"/>
</svg>
