<svg width="24" height="10" viewBox="0 0 24 10" fill="none" xmlns="http://www.w3.org/2000/svg">
<g clip-path="url(#clip0)">
<g filter="url(#filter0_d)">
<path fill-rule="evenodd" clip-rule="evenodd" d="M12 5C9.19927 5 7.19955 0 4 0H20C16.7982 0 14.8007 5 12 5Z" fill="white"/>
<path d="M20 0V-0.5H4V0V0.5C4.66322 0.5 5.28976 0.757718 5.92251 1.19315C6.56039 1.6321 7.16731 2.22484 7.796 2.85355C7.8395 2.89705 7.88314 2.94077 7.92692 2.98462C8.50164 3.56029 9.09989 4.15953 9.72031 4.62019C10.3911 5.11825 11.1461 5.5 12 5.5C12.854 5.5 13.6088 5.11824 14.2794 4.62015C14.8995 4.15965 15.4973 3.56065 16.0717 2.98518C16.1157 2.94113 16.1595 2.89721 16.2032 2.85351C16.8317 2.22482 17.4386 1.6321 18.0765 1.19317C18.7093 0.757775 19.3361 0.5 20 0.5V0Z" stroke="#C5D0DB"/>
</g>
<path fill-rule="evenodd" clip-rule="evenodd" d="M12 5C9.19927 5 7.19955 0 4 0H20C16.7982 0 14.8007 5 12 5Z" fill="#EBEEF2"/>
</g>
<defs>
<filter id="filter0_d" x="1" y="-3" width="22" height="13" filterUnits="userSpaceOnUse" color-interpolation-filters="sRGB">
<feFlood flood-opacity="0" result="BackgroundImageFix"/>
<feColorMatrix in="SourceAlpha" type="matrix" values="0 0 0 0 0 0 0 0 0 0 0 0 0 0 0 0 0 0 127 0"/>
<feOffset dy="1"/>
<feGaussianBlur stdDeviation="1.5"/>
<feColorMatrix type="matrix" values="0 0 0 0 0 0 0 0 0 0 0 0 0 0 0 0 0 0 0.1 0"/>
<feBlend mode="normal" in2="BackgroundImageFix" result="effect1_dropShadow"/>
<feBlend mode="normal" in="SourceGraphic" in2="effect1_dropShadow" result="shape"/>
</filter>
<clipPath id="clip0">
<rect width="24" height="10" fill="white"/>
</clipPath>
</defs>
</svg>
